<svg xmlns="http://www.w3.org/2000/svg" viewBox="0 0 48 48"><g fill="none" stroke="#000" stroke-linecap="round" stroke-linejoin="round"><rect width="35.733" height="26.558" x="6.134" y="9.403" rx="6.753"/><path d="m17.484 4.5 2.924 4.903M13.26 21.685l6.823-2.726M30.517 4.5l-2.925 4.903m7.148 12.282-6.823-2.726m1.137 5.957c-.582 1.472-1.15 2.54-2.527 2.54-1.074 0-1.666-.498-2.527-1.836-.861 1.338-1.453 1.836-2.527 1.836-1.377 0-1.945-1.068-2.527-2.54m7.022 11.045v2.033s8.691.29 8.691 5.506H13.341c0-5.217 8.691-5.506 8.691-5.506v-2.033"/></g></svg>